<svg width="100" height="100" viewBox="0 0 100 100" fill="none" xmlns="http://www.w3.org/2000/svg">
<path d="M100 50C100 77.6146 77.6146 100 50 100C22.3854 100 0 77.6146 0 50C0 22.3854 22.3854 0 50 0C77.6146 0 100 22.3854 100 50Z" fill="url(#paint0_linear)"/>
<path d="M61.3678 48.4253C65.9607 44.9661 68.9362 39.4699 68.9362 33.2909C68.9362 22.85 60.4416 14.3555 50 14.3555C39.5592 14.3555 31.0646 22.85 31.0646 33.2909C31.0646 39.4699 34.0393 44.9661 38.6322 48.4253C26.3352 53.0411 17.5591 64.9185 17.5591 78.8086H23.4185C23.4185 64.151 35.3432 52.227 50.0008 52.227C64.6576 52.227 76.5824 64.151 76.5824 78.8086H82.4417C82.441 64.9185 73.6656 53.0411 61.3678 48.4253ZM36.924 33.2909C36.924 26.0803 42.7895 20.2148 50 20.2148C57.2106 20.2148 63.076 26.0803 63.076 33.2909C63.076 40.5014 57.2106 46.3676 50 46.3676C42.7895 46.3676 36.924 40.5014 36.924 33.2909Z" fill="white"/>
<defs>
<linearGradient id="paint0_linear" x1="0" y1="50" x2="100" y2="50" gradientUnits="userSpaceOnUse">
<stop stop-color="#254285"/>
<stop offset="1" stop-color="#009EFF"/>
</linearGradient>
</defs>
</svg>
