<svg xmlns="http://www.w3.org/2000/svg" viewBox="0 0 48 48"><g data-name="30. Art tutorial"><path fill="#9fdbf3" d="M3,2H45a2,2,0,0,1,2,2V30a0,0,0,0,1,0,0H1a0,0,0,0,1,0,0V4A2,2,0,0,1,3,2Z"/><path fill="#dad7e5" d="M1,30H47a0,0,0,0,1,0,0v4a2,2,0,0,1-2,2H3a2,2,0,0,1-2-2V30A0,0,0,0,1,1,30Z"/><path fill="#b2e5fb" d="M47,4V28H30A26,26,0,0,1,4,2H45A2,2,0,0,1,47,4Z"/><path fill="#edebf2" d="M47,30v4H8a4,4,0,0,1-4-4Z"/><path fill="#425b72" d="M24,34a1,1,0,0,1-1-1,1,1,0,1,1,1,1Z"/><polygon fill="#dad7e5" points="28 42 20 42 21.33 36 26.67 36 28 42"/><path fill="#dad7e5" d="M17,42H31a1,1,0,0,1,1,1v3a0,0,0,0,1,0,0H16a0,0,0,0,1,0,0V43A1,1,0,0,1,17,42Z"/><path fill="#edebf2" d="M39,25H17a1,1,0,0,1,0-2H39A1,1,0,0,1,39,25Z"/><path fill="#919191" d="M20,25V23a1,1,0,0,1,2,0v2A1,1,0,0,1,20,25Z"/><polygon fill="#db5669" points="9 26 9 22 13 24 9 26"/><path fill="#a87e6b" d="M24,19c-6.74,0-9.55-7.36-4.2-10.79a7.93,7.93,0,0,1,6.67-.82,3,3,0,0,0,4.28,4C32,15,28.81,19,24,19Z"/><path fill="#be927c" d="M30.2,15.79c-5.89,3.83-13.87-1.93-10.4-7.58a7.93,7.93,0,0,1,6.67-.82,3,3,0,0,0,4.28,4A5.24,5.24,0,0,1,30.2,15.79Z"/><path fill="#f26674" d="M21.29,10.29a1,1,0,0,1,1.42,1.42A1,1,0,0,1,21.29,10.29Z"/><path fill="#ffde76" d="M21,15a1,1,0,1,1,.56-1.83A1,1,0,0,1,21,15Z"/><path fill="#82bcf4" d="M24,17a1,1,0,1,1,.55-1.83A1,1,0,0,1,24,17Z"/><path fill="#b5e08c" d="M27,16a1,1,0,1,1,.92-1.38A1,1,0,0,1,27,16Z"/><path fill="#edebf2" d="M27.56 40H26.1a3.29 3.29 0 0 1-3.21-4h3.78zM32 43v1H20a2 2 0 0 1-2-2H31A1 1 0 0 1 32 43z"/><polygon fill="#f26674" points="12 23.5 9 25 9 22 12 23.5"/><path d="M45,1H3A3,3,0,0,0,0,4V34a3,3,0,0,0,3,3H20.09l-.89,4H17a2,2,0,0,0-2,2v3a1,1,0,0,0,1,1H32a1,1,0,0,0,1-1V43a2,2,0,0,0-2-2H28.8l-.89-4H45a3,3,0,0,0,3-3V4A3,3,0,0,0,45,1ZM2,4A1,1,0,0,1,3,3H45a1,1,0,0,1,1,1V29H2ZM31,45H17V43H31Zm-4.25-4h-5.5l.88-4h3.74ZM46,34a1,1,0,0,1-1,1H3a1,1,0,0,1-1-1V31H46Z"/><path d="M23.29 33.71a1 1 0 0 0 1.63-.33 1 1 0 0 0-.54-1.3A1 1 0 0 0 23.29 33.71zM39 23H22a1 1 0 0 0-2 0H17a1 1 0 0 0 0 2h3a1 1 0 0 0 2 0H39A1 1 0 0 0 39 23zM13.45 23.11c-4.34-2.17-4.35-2.35-5-2S8 21.76 8 26a1 1 0 0 0 1 1c.34 0 .13.05 4.45-2.11A1 1 0 0 0 13.45 23.11zM10 24.38v-.76l.76.38zM24 20c5.51 0 9.12-4.69 7.7-8.89a1 1 0 0 0-1.54-.49A2 2 0 0 1 27 9c0-1 .69-1.17.41-1.94a1 1 0 0 0-.63-.62C21.59 4.73 16 8.13 16 13 16 16.86 19.59 20 24 20zM25.1 8.09A4 4 0 0 0 30 12.87c.07 3-2.85 5.13-6 5.13-3.31 0-6-2.24-6-5C18 9.81 21.5 7.52 25.1 8.09z"/><path d="M21.62 11.92A1 1 0 1 0 21 11 1 1 0 0 0 21.62 11.92zM20.29 14.71A1 1 0 1 0 21.2 13 1 1 0 0 0 20.29 14.71zM23.08 16.38a1 1 0 1 0 1.3-1.3A1 1 0 0 0 23.08 16.38zM26.62 15.92a1 1 0 1 0-.54-1.3A1 1 0 0 0 26.62 15.92z"/></g></svg>