<svg xmlns="http://www.w3.org/2000/svg" width="512" height="512"><g fill="#262626" fill-rule="evenodd" clip-rule="evenodd"><path d="M425.614 86.28C382.172 42.97 322.258 16.004 255.96 16.004c-66.297 0-126.212 26.966-169.654 70.276-43.438 43.445-70.277 103.492-70.277 169.789 0 66.156 26.839 126.212 70.277 169.65 43.442 43.311 103.357 70.276 169.654 70.276 66.298 0 126.212-26.966 169.654-70.276 43.438-43.438 70.282-103.494 70.282-169.65 0-66.297-26.843-126.343-70.282-169.789zm-13.282 326.158c-39.993 39.988-95.261 64.83-156.372 64.83s-116.379-24.842-156.372-64.83c-40.112-39.989-64.826-95.389-64.826-156.368 0-61.113 24.714-116.514 64.826-156.502 39.993-39.993 95.261-64.7 156.372-64.7s116.379 24.707 156.372 64.7c40.117 39.988 64.821 95.389 64.821 156.502 0 60.979-24.704 116.378-64.821 156.368z"/><path d="M366.226 179.544c-9.293-10.095-19.793-10.793-24.44-11.46-34.276-2.522-85.688-3.083-85.688-3.083h-.274s-51.274.561-85.561 3.083c-4.907.667-15.27 1.085-24.568 11.177-7.311 7.709-8.995 25.517-8.995 25.517s-1.7 20.866-1.7 41.325v19.53c0 20.726 1.699 41.186 1.699 41.186s2.101 17.669 9.412 25.505c9.298 10.229 21.32 9.832 26.895 10.893 19.533 1.996 83.195 2.659 83.195 2.659s51.36-.266 85.637-2.659c4.646-.663 15.118-.663 24.411-10.893 7.315-7.836 9.102-25.505 9.102-25.505S377 286.358 377 265.633v-19.531c0-20.459-1.663-41.184-1.663-41.184s-1.796-17.668-9.111-25.374zM232 289.013v-71.739l29.319 16.344 36.621 19.663L232 289.013z"/></g></svg>